<mxfile host="app.diagrams.net" modified="2023-04-14T16:47:31.773Z" agent="Mozilla/5.0 (Macintosh; Intel Mac OS X 10_15_7) AppleWebKit/537.36 (KHTML, like Gecko) Chrome/109.0.0.0 Safari/537.36" version="21.1.8" etag="nbaQuhbAYBNj0kxI5mUI" type="github">
  <diagram name="Страница 1" id="Wj0eQs0ZZt3vvGxt8hNR">
    <mxGraphModel>
      <root>
        <mxCell id="0" />
        <mxCell id="1" parent="0" />
      </root>
    </mxGraphModel>
  </diagram>
</mxfile>
